<svg width="18" height="18" viewBox="0 0 18 18" fill="none" xmlns="http://www.w3.org/2000/svg">
<g clip-path="url(#clip0_11167_18379)">
<path d="M16.5 13.6382V13.5002C16.4988 12.506 16.1033 11.5528 15.4003 10.8498C14.6973 10.1468 13.7442 9.75136 12.75 9.75017H9.75001V8.93267C10.8626 8.74461 11.8639 8.14547 12.5555 7.25396C13.2471 6.36246 13.5786 5.24367 13.4842 4.11929C13.3899 2.99491 12.8766 1.94701 12.046 1.18325C11.2155 0.419487 10.1283 -0.00439453 9.00001 -0.00439453C7.87168 -0.00439453 6.78452 0.419487 5.95398 1.18325C5.12344 1.94701 4.61013 2.99491 4.51577 4.11929C4.42141 5.24367 4.75289 6.36246 5.44452 7.25396C6.13615 8.14547 7.13746 8.74461 8.25001 8.93267V9.75017H5.25001C4.25581 9.75136 3.30267 10.1468 2.59967 10.8498C1.89667 11.5528 1.5012 12.506 1.5 13.5002V13.6382C0.999594 13.8151 0.577839 14.1632 0.309281 14.621C0.0407231 15.0788 -0.0573456 15.6168 0.0324079 16.14C0.122161 16.6631 0.393958 17.1376 0.79976 17.4797C1.20556 17.8219 1.71924 18.0095 2.25 18.0095C2.78077 18.0095 3.29445 17.8219 3.70025 17.4797C4.10605 17.1376 4.37785 16.6631 4.4676 16.14C4.55736 15.6168 4.45929 15.0788 4.19073 14.621C3.92217 14.1632 3.50042 13.8151 3.00001 13.6382V13.5002C3.00001 12.9034 3.23706 12.3311 3.65901 11.9092C4.08097 11.4872 4.65327 11.2502 5.25001 11.2502H8.25001V13.6382C7.7496 13.8151 7.32784 14.1632 7.05928 14.621C6.79072 15.0788 6.69266 15.6168 6.78241 16.14C6.87216 16.6631 7.14396 17.1376 7.54976 17.4797C7.95556 17.8219 8.46924 18.0095 9.00001 18.0095C9.53077 18.0095 10.0444 17.8219 10.4503 17.4797C10.8561 17.1376 11.1278 16.6631 11.2176 16.14C11.3074 15.6168 11.2093 15.0788 10.9407 14.621C10.6722 14.1632 10.2504 13.8151 9.75001 13.6382V11.2502H12.75C13.3467 11.2502 13.919 11.4872 14.341 11.9092C14.763 12.3311 15 12.9034 15 13.5002V13.6382C14.4996 13.8151 14.0778 14.1632 13.8093 14.621C13.5407 15.0788 13.4427 15.6168 13.5324 16.14C13.6222 16.6631 13.894 17.1376 14.2998 17.4797C14.7056 17.8219 15.2192 18.0095 15.75 18.0095C16.2808 18.0095 16.7944 17.8219 17.2003 17.4797C17.6061 17.1376 17.8778 16.6631 17.9676 16.14C18.0574 15.6168 17.9593 15.0788 17.6907 14.621C17.4222 14.1632 17.0004 13.8151 16.5 13.6382Z" fill="#6E727F"/>
</g>
<defs>
<clipPath id="clip0_11167_18379">
<rect width="18" height="18" fill="white"/>
</clipPath>
</defs>
</svg>
